<?xml version="1.0" standalone="no"?>
<!DOCTYPE svg PUBLIC "-//W3C//DTD SVG 20010904//EN"
 "http://www.w3.org/TR/2001/REC-SVG-20010904/DTD/svg10.dtd">
<svg version="1.0" xmlns="http://www.w3.org/2000/svg"
 width="1024.000000pt" height="1024.000000pt" viewBox="0 0 1024.000000 1024.000000"
 preserveAspectRatio="xMidYMid meet">
<metadata>
Created by potrace 1.16, written by Peter Selinger 2001-2019
</metadata>
<g transform="translate(0.000000,1024.000000) scale(0.100000,-0.100000)"
fill="#000000" stroke="none">
<path d="M4575 8640 c-960 -5 -1499 -11 -1535 -17 -448 -86 -862 -376 -1062
-745 -88 -163 -143 -342 -167 -543 -15 -131 -26 -4143 -12 -4290 21 -214 95
-441 198 -610 65 -107 209 -272 303 -348 214 -172 468 -279 730 -308 160 -18
161 -18 198 -56 24 -25 36 -32 42 -24 4 8 29 12 67 10 33 -1 66 1 73 6 9 5 15
4 18 -4 2 -7 16 -10 35 -6 103 16 130 14 160 -11 l29 -24 19 22 c16 20 18 20
19 6 0 -19 40 -26 40 -8 0 17 36 11 64 -11 27 -21 76 -20 76 2 0 6 4 8 10 4 5
-3 7 -12 3 -20 -3 -11 2 -15 17 -15 16 0 20 4 16 15 -8 21 44 12 56 -10 12
-21 27 -19 50 7 20 23 48 33 48 16 0 -10 25 -38 35 -38 3 0 1 9 -5 19 -14 27
-12 39 3 21 19 -23 54 -40 82 -40 14 0 25 -4 25 -9 0 -5 7 -12 16 -15 11 -4
14 -1 9 13 -4 13 0 20 15 24 11 3 20 1 20 -4 0 -10 36 -7 46 4 13 13 23 7 18
-10 -5 -17 -5 -17 6 0 6 9 9 21 6 25 -5 8 30 8 89 0 11 -2 26 -9 33 -16 8 -7
18 -10 23 -7 5 4 9 1 9 -5 0 -8 6 -8 20 0 16 9 20 8 21 -7 0 -11 3 -13 6 -5 2
6 13 12 24 12 11 0 19 7 19 16 0 14 3 14 15 4 8 -7 15 -19 15 -26 0 -8 4 -14
9 -14 5 0 7 9 4 20 -3 11 0 20 6 20 6 0 11 -6 11 -14 0 -17 48 -28 53 -12 3 7
9 6 21 -3 13 -11 19 -12 25 -3 5 8 17 9 41 2 47 -14 73 -13 64 2 -5 8 -2 9 11
4 11 -4 22 -2 27 6 6 10 8 10 8 1 0 -7 6 -13 14 -13 8 0 16 -4 18 -9 2 -6 30
-4 68 4 36 8 74 14 84 15 19 0 19 0 1 -13 -11 -9 -14 -16 -7 -21 6 -3 13 -2
17 4 3 5 16 10 28 10 18 0 19 2 7 10 -11 7 -2 8 28 4 28 -4 42 -3 42 5 0 6 9
11 21 11 11 0 29 5 40 10 15 8 19 7 19 -3 0 -8 10 -17 23 -20 12 -2 30 -8 40
-12 14 -6 16 -4 10 11 -4 12 -3 15 6 10 7 -5 11 -16 8 -25 -2 -11 1 -18 9 -18
8 0 14 9 14 19 0 26 18 22 23 -4 4 -22 4 -22 6 2 1 19 3 22 10 11 10 -15 131
-23 131 -9 0 4 7 5 15 2 8 -4 12 -11 8 -17 -4 -6 4 -7 23 -2 16 4 48 8 72 9
32 1 43 -2 48 -16 8 -26 23 -13 17 15 -3 12 -1 18 4 12 9 -12 64 -14 57 -3 -3
4 11 8 30 8 19 0 38 -5 42 -12 5 -8 10 -7 18 3 14 18 60 24 53 7 -3 -10 13
-13 63 -13 38 0 63 3 58 6 -6 4 0 10 12 14 16 5 26 3 32 -9 5 -9 19 -16 31
-15 20 1 20 2 -3 8 -23 7 -23 8 -5 13 28 9 105 7 105 -2 0 -5 10 -6 23 -3 17
4 19 3 7 -6 -11 -8 -8 -9 15 -6 17 2 34 4 38 4 5 1 6 5 3 10 -3 5 1 14 9 21
12 10 15 9 15 -4 0 -22 20 -21 21 2 0 12 2 13 6 3 3 -8 -1 -20 -10 -26 -14
-10 -12 -12 14 -12 18 0 25 3 17 8 -15 10 -10 16 17 21 13 2 19 -2 17 -11 -2
-9 3 -11 13 -7 9 3 23 6 30 6 7 0 16 8 18 18 3 9 5 2 6 -17 1 -39 10 -38 13 2
2 21 8 27 24 27 13 0 30 7 39 16 17 18 17 18 33 -11 8 -14 11 -16 12 -5 0 11
15 16 65 18 55 2 66 -1 75 -18 6 -11 16 -17 25 -14 9 4 22 1 30 -6 19 -16 19
-7 1 29 l-15 27 32 -4 c18 -3 37 -8 43 -13 6 -5 17 0 28 12 14 17 20 18 32 8
8 -6 17 -9 21 -5 3 3 1 6 -5 6 -7 0 -12 4 -12 9 0 5 14 8 31 7 16 -1 33 3 37
10 4 7 34 15 67 18 162 15 165 15 115 26 l-35 7 36 2 c20 0 71 10 115 21 43
11 85 18 92 15 7 -2 11 -1 8 4 -5 8 118 47 141 45 7 -1 10 2 7 7 -3 5 -1 9 5
9 24 0 187 85 264 137 161 111 263 209 369 358 116 163 207 403 237 629 8 53
11 733 11 2146 0 2295 3 2173 -66 2413 -52 178 -89 260 -184 407 -210 327
-559 553 -998 646 -115 24 -127 25 -627 27 -280 2 -1176 0 -1990 -3z m614
-475 c66 -34 96 -128 62 -197 -30 -62 -76 -90 -149 -90 -74 0 -125 23 -158 71
-74 110 29 251 174 236 23 -3 55 -11 71 -20z m605 -125 c25 -11 53 -37 69 -62
36 -54 33 -108 -11 -178 l-30 -48 80 -72 80 -73 56 56 c31 30 85 72 120 92 58
34 62 38 62 73 1 63 33 120 82 142 62 28 107 26 155 -9 79 -57 105 -143 65
-221 -29 -58 -73 -80 -160 -80 l-75 0 -82 -82 c-59 -59 -93 -104 -118 -155
-20 -39 -41 -74 -47 -78 -6 -3 -46 -3 -90 1 -92 8 -92 7 -63 107 l17 60 -28
22 c-46 36 -150 68 -198 61 -95 -15 -203 -104 -255 -210 -30 -62 -30 -62 -131
-45 l-64 11 5 40 c3 21 24 77 48 124 56 114 113 170 238 231 53 27 98 49 100
50 2 2 -4 21 -14 43 -21 47 -16 110 12 149 20 27 96 71 122 71 8 0 33 -9 55
-20z m-1264 -15 c69 -36 92 -125 51 -199 l-20 -34 37 -7 c101 -19 196 -96 292
-236 50 -72 66 -90 83 -87 21 3 22 9 27 130 3 69 8 129 11 132 3 4 19 2 35 -4
17 -7 51 -9 80 -5 l51 6 6 -83 c4 -46 7 -120 7 -165 0 -76 12 -117 23 -76 3
12 5 9 6 -8 1 -26 -1 -27 -76 -32 -43 -3 -136 -6 -208 -7 l-130 0 -27 47 c-49
88 -123 160 -204 199 l-74 35 0 48 0 48 -52 7 c-71 10 -104 30 -128 76 -57
111 14 229 138 230 24 0 56 -7 72 -15z m-650 -40 c16 -8 41 -35 56 -60 21 -37
25 -53 20 -88 l-5 -42 59 -28 c43 -20 77 -48 122 -98 34 -38 65 -69 69 -69 4
0 12 14 19 30 7 17 31 44 53 60 l41 30 18 -34 c26 -52 25 -94 -6 -155 -29 -55
-29 -64 -10 -160 l7 -34 -75 6 c-99 8 -105 12 -133 66 -32 64 -114 177 -164
229 -30 31 -47 42 -59 36 -9 -3 -40 -9 -67 -11 -65 -7 -114 14 -151 63 -25 32
-29 46 -29 103 0 54 5 72 24 100 44 62 147 89 211 56z m2135 -809 c25 -7 55
-60 58 -101 2 -27 -3 -33 -48 -55 -49 -24 -58 -25 -325 -32 -297 -7 -1255 -2
-1410 7 -114 7 -145 18 -160 56 -11 25 -7 109 5 129 5 7 1857 4 1880 -4z
m-518 -700 c23 -25 33 -45 33 -68 0 -59 -19 -80 -99 -110 -90 -33 -142 -80
-174 -158 l-22 -55 0 -1265 0 -1265 23 -50 c40 -87 89 -126 182 -146 40 -8 53
-17 65 -39 28 -53 11 -136 -33 -159 -10 -5 -203 -11 -450 -12 -421 -3 -433 -3
-459 17 -41 30 -54 63 -43 105 14 51 45 74 132 100 90 26 133 58 171 127 l27
50 3 999 c2 549 0 1009 -3 1023 -8 29 -6 32 -92 -180 -47 -115 -192 -456 -398
-935 -92 -213 -234 -508 -253 -523 -7 -6 -24 -13 -38 -17 -55 -14 -104 61
-239 370 -29 66 -88 199 -130 295 -42 96 -108 247 -145 335 -62 147 -93 221
-238 558 -27 64 -53 117 -56 117 -3 0 -6 -462 -6 -1028 0 -1020 0 -1027 21
-1072 37 -80 105 -130 179 -130 53 0 92 -20 113 -59 30 -53 28 -86 -7 -122
-16 -16 -35 -29 -43 -29 -7 -1 -212 -1 -455 -2 -492 -2 -480 -3 -503 67 -10
31 -9 41 10 80 17 36 29 47 66 59 24 9 65 23 92 33 53 18 99 62 128 120 18 37
19 78 19 1328 l0 1290 -27 47 c-40 67 -91 105 -157 118 -81 15 -123 39 -133
75 -11 42 8 91 46 120 l33 25 437 0 c485 0 488 0 527 -64 49 -80 9 -131 -129
-166 -52 -12 -96 -28 -98 -35 -6 -13 49 -141 124 -291 27 -54 71 -148 97 -209
26 -60 65 -144 86 -185 21 -41 69 -147 107 -235 39 -88 111 -252 161 -365 50
-113 95 -213 99 -223 8 -19 37 41 257 543 18 41 56 127 85 190 29 63 61 138
72 165 11 28 32 77 48 110 15 33 47 103 70 155 23 52 50 111 60 130 10 19 40
77 65 129 52 104 52 106 -25 117 -85 11 -118 24 -144 55 -44 52 -27 125 37
162 16 9 129 14 417 18 217 3 413 4 435 3 31 -2 47 -11 72 -38z m2154 13 c21
-30 22 -37 20 -293 -2 -299 -6 -342 -34 -373 -40 -44 -206 -24 -222 26 -3 12
-10 56 -14 99 -9 87 -24 123 -73 168 -44 42 -134 98 -178 112 -54 16 -292 22
-589 15 l-271 -6 0 -585 0 -584 263 4 c245 4 266 6 322 27 79 31 137 90 154
157 26 108 36 128 70 151 50 34 119 32 153 -4 44 -48 57 -82 45 -122 -6 -23
-8 -184 -4 -453 l7 -416 -31 -26 c-24 -21 -41 -26 -84 -26 -101 0 -124 22
-136 126 -13 121 -75 200 -198 250 -64 26 -73 27 -313 32 l-248 4 0 -83 c0
-46 -1 -325 -1 -619 l-2 -535 27 -52 c34 -69 78 -101 157 -115 73 -13 102 -36
120 -97 11 -38 10 -43 -15 -80 -15 -21 -35 -41 -44 -43 -9 -2 -207 -2 -440 0
l-423 4 -24 37 c-29 42 -31 77 -8 126 14 29 27 39 76 57 78 28 132 69 159 120
l23 43 2 1295 3 1295 -26 52 c-30 62 -62 87 -158 122 -59 22 -74 33 -90 62
-23 42 -17 74 20 118 l26 31 851 3 c469 1 909 3 979 5 l127 2 22 -31z m-2483
-3859 c34 -21 71 -87 72 -128 0 -33 -35 -96 -70 -126 -25 -20 -42 -26 -81 -26
-62 0 -101 20 -134 67 -33 49 -35 128 -4 167 49 63 153 85 217 46z"/>
</g>
</svg>
